# Blender v2.79 (sub 0) OBJ File: ''
# www.blender.org
mtllib factory.mtl
o Cube
v 1.000000 -1.000000 -1.000000
v 1.000000 -1.000000 1.000000
v -1.000000 -1.000000 1.000000
v -1.000000 -1.000000 -1.000000
v 1.000000 1.000000 -0.999999
v 0.999999 0.000000 1.000001
v -1.000000 0.000000 1.000000
v -1.000000 1.000000 -1.000000
v 0.333333 -1.000000 -1.000000
v -0.333333 -1.000000 -1.000000
v 0.333333 -1.000000 1.000000
v -0.333333 -1.000000 1.000000
v 0.333334 1.000000 -1.000000
v -0.333333 1.000000 -1.000000
v 0.333333 0.000000 1.000000
v -0.333334 0.000000 1.000000
v 1.000000 1.400000 -0.999999
v 0.999999 0.400000 1.000001
v -0.333333 1.400000 -1.000000
v -1.000000 1.400000 -1.000000
v -0.333334 0.400000 1.000000
v -1.000000 0.400000 1.000000
v 0.333334 1.400000 -1.000000
v 0.333333 0.400000 1.000000
vt 0.432809 0.875918
vt 0.432809 0.999421
vt 0.300085 0.999421
vt 0.300085 0.875918
vt 0.362760 0.455557
vt 0.129427 0.322532
vt 0.129427 0.375742
vt 0.362760 0.508767
vt 0.654996 0.188822
vt 0.654995 0.439333
vt 0.874701 0.314078
vt 0.874701 0.188822
vt 0.556289 0.749641
vt 0.556290 0.571177
vt 0.686778 0.571177
vt 0.686778 0.749641
vt 0.129427 0.189507
vt 0.362760 0.189507
vt 0.433176 0.502173
vt 0.433176 0.745006
vt 0.312612 0.745006
vt 0.312611 0.502173
vt 0.684817 0.499955
vt 0.684817 0.748455
vt 0.569395 0.748455
vt 0.569395 0.499955
vt 0.550385 0.499253
vt 0.550385 0.748664
vt 0.449615 0.748664
vt 0.449615 0.499253
vt 0.314690 0.749641
vt 0.314690 0.571177
vt 0.445179 0.571177
vt 0.445178 0.749641
vt 0.438284 0.586113
vt 0.438284 0.501126
vt 0.561065 0.501126
vt 0.561065 0.586113
vt 0.690095 0.194793
vt 0.688142 0.481504
vt 0.749723 0.472356
vt 0.749723 0.195411
vt 0.124399 0.500554
vt 0.249436 0.500554
vt 0.249436 0.874939
vt 0.124399 0.874939
vt 0.698257 0.875918
vt 0.698257 0.999421
vt 0.565533 0.999421
vt 0.565533 0.875918
vt 0.250010 0.499732
vt 0.126386 0.499732
vt 0.126386 0.187634
vt 0.250010 0.187634
vt 0.874479 0.499865
vt 0.751280 0.499865
vt 0.751280 0.188432
vt 0.874479 0.188432
vt 0.444444 0.532100
vt 0.333333 0.532100
vt 0.333333 0.456086
vt 0.444444 0.456086
vt 0.314690 0.499792
vt 0.445178 0.499792
vt 0.666667 0.532100
vt 0.555556 0.532100
vt 0.555556 0.456086
vt 0.666667 0.456086
vt 0.250794 0.212344
vt 0.250795 0.489233
vt 0.312748 0.492955
vt 0.312748 0.216065
vt 0.556290 0.499792
vt 0.686778 0.499792
vt 0.654995 0.489435
vt 0.874701 0.364180
vn 0.0000 -1.0000 0.0000
vn -1.0000 0.0000 -0.0000
vn 1.0000 0.0000 0.0000
vn -0.0000 0.0000 1.0000
vn 0.0000 0.0000 -1.0000
vn -0.0000 0.8944 0.4472
usemtl Material
s off
f 10/1/1 12/2/1 3/3/1 4/4/1
f 8/5/2 7/6/2 22/7/2 20/8/2
f 1/9/3 5/10/3 6/11/3 2/12/3
f 12/13/4 16/14/4 7/15/4 3/16/4
f 3/17/2 7/6/2 8/5/2 4/18/2
f 14/19/5 10/20/5 4/21/5 8/22/5
f 5/23/5 1/24/5 9/25/5 13/26/5
f 13/27/5 9/28/5 10/29/5 14/30/5
f 2/31/4 6/32/4 15/33/4 11/34/4
f 11/35/4 15/36/4 16/37/4 12/38/4
f 13/39/2 15/40/2 24/41/2 23/42/2
f 13/43/6 14/44/6 16/45/6 15/46/6
f 1/47/1 2/48/1 11/49/1 9/50/1
f 9/50/1 11/49/1 12/2/1 10/1/1
f 19/51/6 20/52/6 22/53/6 21/54/6
f 17/55/6 23/56/6 24/57/6 18/58/6
f 14/59/5 8/60/5 20/61/5 19/62/5
f 15/33/4 6/32/4 18/63/4 24/64/4
f 5/65/5 13/66/5 23/67/5 17/68/5
f 16/69/3 14/70/3 19/71/3 21/72/3
f 7/15/4 16/14/4 21/73/4 22/74/4
f 6/11/3 5/10/3 17/75/3 18/76/3
