# Blender v2.79 (sub 0) OBJ File: 'gemini.blend'
# www.blender.org
mtllib gemini.mtl
o Box001_Untitled
v 0.006007 0.082486 -0.022005
v -0.111351 0.300596 -0.022005
v 0.614980 0.204754 -0.022005
v 0.614980 0.092833 -0.022005
v -0.111351 0.257386 0.123410
v -0.111351 0.101588 0.124654
v -0.311115 0.251642 0.123808
v -0.358369 0.300596 -0.022005
v -0.360514 0.082486 -0.022063
v -0.312111 0.101588 0.123410
v -0.312111 0.044397 0.027910
v -0.155601 0.285907 0.073039
v -0.266990 0.286304 0.071741
v -0.355299 0.532479 -0.022234
v -0.195101 0.544274 -0.022233
v -0.150893 0.130066 0.131508
v -0.150893 0.221656 0.130767
v -0.150893 0.195455 0.243386
v -0.150893 0.134751 0.244567
v -0.123719 0.214929 0.273233
v -0.254059 0.214929 0.263544
v -0.254059 0.110051 0.265583
v -0.123719 0.110051 0.275272
v 0.006007 -0.082486 -0.022006
v 0.614980 -0.092833 -0.022005
v 0.614980 -0.204754 -0.022006
v -0.111351 -0.300596 -0.022006
v -0.111351 -0.101588 0.124654
v -0.111351 -0.257387 0.123410
v -0.360514 -0.082486 -0.022063
v -0.358369 -0.300596 -0.022006
v -0.311115 -0.251643 0.123808
v -0.312111 -0.101588 0.123410
v -0.312111 -0.044397 0.027910
v -0.155601 -0.285907 0.073038
v -0.266989 -0.286304 0.071741
v -0.195100 -0.544274 -0.022234
v -0.355299 -0.532479 -0.022234
v -0.150893 -0.130067 0.131508
v -0.150893 -0.134751 0.244567
v -0.150893 -0.195455 0.243386
v -0.150893 -0.221656 0.130767
v -0.123719 -0.214929 0.273233
v -0.123719 -0.110051 0.275272
v -0.254059 -0.110051 0.265583
v -0.254059 -0.214929 0.263544
vt 0.257812 0.078125
vt 0.257812 0.140625
vt 0.015625 0.140625
vt 0.015625 0.078125
vt 0.437500 0.187500
vt 0.562500 0.187500
vt 0.562500 0.687500
vt 0.437500 0.687500
vt 0.812500 0.250000
vt 0.812500 0.375000
vt 0.937500 0.375000
vt 0.937500 0.250000
vt 0.875000 1.000000
vt 0.937500 0.500000
vt 0.875000 0.500000
vt 0.625000 0.187500
vt 0.625000 0.687500
vt 0.187500 0.101562
vt 0.125000 0.164062
vt 0.187500 0.164062
vt 0.179688 0.093750
vt 0.179688 0.218750
vt 0.062500 0.218750
vt 0.062500 0.093750
vt 0.687500 0.875000
vt 0.750000 0.875000
vt 0.750000 0.906250
vt 0.750000 0.968750
vt 0.750000 1.000000
vt 0.687500 1.000000
vt 0.117188 0.109375
vt 0.296875 0.132812
vt 0.289062 0.320312
vt 0.203125 0.328125
vt 0.750000 1.000000
vt 0.750000 0.875000
vt 0.875000 0.875000
vt 0.875000 1.000000
vt 0.500000 0.187500
vt 0.500000 0.125000
vt 0.375000 0.187500
vt 0.750000 0.812500
vt 0.875000 0.812500
vt 0.562500 0.687500
vt 0.625000 0.750000
vt 0.562500 0.750000
vt 0.453125 0.703125
vt 0.546875 0.703125
vt 0.546875 0.859375
vt 0.453125 0.859375
vt 0.562500 0.875000
vt 0.562500 1.000000
vt 0.437500 1.000000
vt 0.437500 0.875000
vt 0.812500 0.125000
vt 0.937500 0.125000
vt 0.312500 0.875000
vt 0.312500 1.000000
vt 0.257812 0.187500
vt 0.085938 0.187500
vt 0.085938 0.125000
vt 0.257812 0.125000
vt 0.812500 0.812500
vt 0.812500 0.312500
vt 0.687500 0.312500
vt 0.687500 0.812500
vt 0.312500 0.625000
vt 0.437500 0.625000
vt 0.437500 0.750000
vt 0.312500 0.750000
vt 0.875000 1.000000
vt 0.875000 0.500000
vt 0.937500 0.500000
vt 0.625000 0.312500
vt 0.625000 0.812500
vt 0.062500 0.179688
vt 0.273438 0.179688
vt 0.242188 0.210938
vt 0.304688 0.125000
vt 0.304688 0.187500
vt 0.562500 0.125000
vt 0.500000 0.093750
vt 0.500000 0.125000
vt 0.500000 0.031250
vt 0.562500 0.000000
vt 0.500000 0.000000
vt 0.257812 0.039062
vt 0.304688 0.039062
vt 0.500000 0.000000
vt 0.375000 0.000000
vt 0.375000 0.125000
vt 0.500000 0.125000
vt 0.500000 0.125000
vt 0.375000 0.187500
vt 0.500000 0.187500
vt 0.750000 0.812500
vt 0.750000 0.875000
vt 0.875000 0.812500
vt 0.562500 0.687500
vt 0.562500 0.750000
vt 0.625000 0.750000
vt 0.796875 0.296875
vt 0.796875 0.140625
vt 0.703125 0.140625
vt 0.703125 0.296875
vt 0.687500 0.125000
vt 0.812500 0.125000
vt 0.812500 0.000000
vt 0.687500 0.000000
vt 0.437500 0.875000
vt 0.312500 0.875000
vt 0.937500 0.125000
vt 0.937500 0.000000
vt 0.195312 0.750000
vt 0.312500 0.750000
vt 0.187500 0.875000
vt 0.187500 1.000000
vt 0.195312 0.750000
vt 0.195312 0.625000
vt 0.312500 0.625000
vt 0.046875 0.289062
vt 0.046875 0.039062
vt 0.171875 0.039062
vt 0.171875 0.289062
vn 0.0000 0.0001 -1.0000
vn 0.0001 -0.0002 -1.0000
vn -0.0000 -0.0000 -1.0000
vn 0.1973 0.0046 0.9803
vn -0.9498 0.0077 0.3127
vn 0.0168 -0.9897 0.1424
vn 0.1255 0.9510 0.2826
vn 0.0001 -0.7953 -0.6062
vn 0.0001 0.0002 -1.0000
vn 0.0001 -0.0004 -1.0000
vn 0.2817 0.9198 0.2733
vn -0.2508 0.8903 0.3802
vn -0.0161 0.8510 0.5249
vn 0.0000 -0.0010 -1.0000
vn -0.0190 0.3469 0.9377
vn -0.7153 0.0102 0.6988
vn 0.8489 0.2922 0.4404
vn -0.7697 -0.5477 0.3280
vn 1.0000 -0.0000 -0.0000
vn -0.0741 0.0194 0.9971
vn -0.9256 0.0061 0.3785
vn -0.0243 0.9634 0.2671
vn -0.0019 -0.9983 0.0580
vn 0.1762 0.0079 0.9843
vn 0.6254 0.7803 -0.0096
vn 0.7436 -0.0130 -0.6685
vn 0.6608 -0.7332 -0.1607
vn 0.0000 -0.0001 -1.0000
vn 0.1973 -0.0046 0.9803
vn -0.9498 -0.0077 0.3127
vn 0.0168 0.9897 0.1424
vn 0.1255 -0.9510 0.2826
vn 0.0001 0.7953 -0.6062
vn 0.0001 0.0004 -1.0000
vn 0.2817 -0.9198 0.2733
vn -0.2508 -0.8903 0.3802
vn -0.0161 -0.8510 0.5249
vn 0.0000 0.0010 -1.0000
vn -0.0190 -0.3469 0.9377
vn -0.7153 -0.0102 0.6988
vn 0.8489 -0.2922 0.4404
vn -0.7697 0.5477 0.3280
vn -0.0741 -0.0194 0.9971
vn -0.9256 -0.0061 0.3785
vn -0.0243 -0.9633 0.2671
vn -0.0019 0.9983 0.0580
vn 0.1762 -0.0079 0.9843
vn 0.6254 -0.7803 -0.0096
vn 0.7436 0.0130 -0.6685
vn 0.6608 0.7332 -0.1607
vn 0.7808 -0.0000 0.6248
vn -0.0062 0.0000 1.0000
vn -1.0000 0.0000 0.0000
vn -0.1550 0.0000 -0.9879
usemtl Material
s 1
f 1/1/1 2/2/2 3/3/3 4/4/3
f 4/5/4 3/6/4 5/7/4 6/8/4
f 7/9/5 8/10/5 9/11/5 10/12/5
f 4/13/6 6/14/6 1/15/6
f 5/7/7 3/16/7 2/17/7
f 1/18/8 11/19/8 9/20/8
f 1/21/1 9/22/9 8/23/10 2/24/2
f 5/25/11 2/26/11 12/27/11
f 13/28/12 8/29/12 7/30/12
f 12/27/13 13/28/13 7/30/13 5/25/13
f 2/31/2 8/32/10 14/33/14 15/34/14
f 13/35/15 12/36/15 15/37/15 14/38/15
f 8/39/16 13/40/16 14/41/16
f 2/42/17 15/43/17 12/36/17
f 10/44/18 9/45/18 11/46/18
f 16/47/19 17/48/19 18/49/19 19/50/19
f 20/51/20 21/52/20 22/53/20 23/54/20
f 21/55/21 7/9/21 10/12/21 22/56/21
f 21/52/22 20/51/22 5/25/22 7/30/22
f 6/57/23 23/54/23 22/53/23 10/58/23
f 17/48/24 16/47/24 6/8/24 5/7/24
f 19/50/25 23/54/25 6/8/25 16/47/25
f 19/50/26 18/49/26 20/51/26 23/54/26
f 18/49/27 17/48/27 5/7/27 20/51/27
f 24/59/28 25/60/3 26/61/3 27/62/9
f 25/63/29 28/64/29 29/65/29 26/66/29
f 30/67/30 31/68/30 32/69/30 33/70/30
f 25/71/31 24/72/31 28/73/31
f 29/65/32 27/74/32 26/75/32
f 24/76/33 30/77/33 34/78/33
f 31/79/34 30/80/2 24/59/28 27/62/9
f 29/81/35 35/82/35 27/83/35
f 36/84/36 32/85/36 31/86/36
f 35/82/37 29/81/37 32/85/37 36/84/37
f 27/62/9 37/87/38 38/88/38 31/79/34
f 36/89/39 38/90/39 37/91/39 35/92/39
f 31/93/40 38/94/40 36/95/40
f 27/96/41 35/97/41 37/98/41
f 33/99/42 34/100/42 30/101/42
f 39/102/19 40/103/19 41/104/19 42/105/19
f 43/106/43 44/107/43 45/108/43 46/109/43
f 33/70/44 32/69/44 46/110/44 45/111/44
f 29/81/45 43/106/45 46/109/45 32/85/45
f 28/112/46 33/113/46 45/108/46 44/107/46
f 42/105/47 29/65/47 28/64/47 39/102/47
f 28/64/48 44/107/48 40/103/48 39/102/48
f 40/103/49 44/107/49 43/106/49 41/104/49
f 41/104/50 43/106/50 29/65/50 42/105/50
f 24/114/51 1/115/51 6/57/51 28/116/51
f 28/116/52 6/57/52 10/58/52 33/117/52
f 33/70/53 10/118/53 11/119/53 34/120/53
f 11/121/54 1/122/54 24/123/54 34/124/54
