# Blender v2.79 (sub 0) OBJ File: ''
# www.blender.org
mtllib gemini.mtl
o Box001_Untitled
v 0.082486 -0.022005 0.006007
v 0.092833 -0.022005 0.614980
v 0.101588 0.124654 -0.111351
v 0.204754 -0.022005 0.614980
v 0.257386 0.123410 -0.111351
v 0.082486 -0.022063 -0.360514
v 0.101588 0.123410 -0.312111
v 0.251642 0.123808 -0.311115
v 0.300596 -0.022005 -0.358369
v 0.285907 0.073039 -0.155601
v 0.286304 0.071741 -0.266990
v 0.300596 -0.022005 -0.111351
v 0.544274 -0.022233 -0.195101
v 0.532479 -0.022234 -0.355299
v 0.044397 0.027910 -0.312111
v 0.110051 0.265583 -0.254059
v 0.214929 0.263544 -0.254059
v 0.110051 0.275272 -0.123719
v 0.214929 0.273233 -0.123719
v 0.130066 0.131508 -0.150893
v 0.221656 0.130767 -0.150893
v 0.195455 0.243386 -0.150893
v 0.134751 0.244567 -0.150893
v -0.082486 -0.022006 0.006007
v -0.300596 -0.022006 -0.111351
v -0.204754 -0.022006 0.614980
v -0.092833 -0.022005 0.614980
v -0.257387 0.123410 -0.111351
v -0.101588 0.124654 -0.111351
v -0.101588 0.123410 -0.312111
v -0.251643 0.123808 -0.311115
v -0.300596 -0.022006 -0.358369
v -0.082486 -0.022063 -0.360514
v -0.044397 0.027910 -0.312111
v -0.285907 0.073038 -0.155601
v -0.286304 0.071741 -0.266989
v -0.532479 -0.022234 -0.355299
v -0.544274 -0.022234 -0.195100
v -0.130067 0.131508 -0.150893
v -0.221656 0.130767 -0.150893
v -0.195455 0.243386 -0.150893
v -0.134751 0.244567 -0.150893
v -0.214929 0.273233 -0.123719
v -0.214929 0.263544 -0.254059
v -0.110051 0.265583 -0.254059
v -0.110051 0.275272 -0.123719
vt 0.257812 0.078125
vt 0.257812 0.140625
vt 0.015625 0.140625
vt 0.015625 0.078125
vt 0.437500 0.187500
vt 0.562500 0.187500
vt 0.562500 0.687500
vt 0.437500 0.687500
vt 0.812500 0.250000
vt 0.812500 0.375000
vt 0.937500 0.375000
vt 0.937500 0.250000
vt 0.875000 1.000000
vt 0.937500 0.500000
vt 0.875000 0.500000
vt 0.625000 0.187500
vt 0.625000 0.687500
vt 0.187500 0.101562
vt 0.125000 0.164062
vt 0.187500 0.164062
vt 0.179688 0.093750
vt 0.179688 0.218750
vt 0.062500 0.218750
vt 0.062500 0.093750
vt 0.687500 0.875000
vt 0.750000 0.875000
vt 0.750000 0.906250
vt 0.750000 0.968750
vt 0.750000 1.000000
vt 0.687500 1.000000
vt 0.117188 0.109375
vt 0.296875 0.132812
vt 0.289062 0.320312
vt 0.203125 0.328125
vt 0.750000 1.000000
vt 0.750000 0.875000
vt 0.875000 0.875000
vt 0.875000 1.000000
vt 0.500000 0.187500
vt 0.500000 0.125000
vt 0.375000 0.187500
vt 0.750000 0.812500
vt 0.875000 0.812500
vt 0.562500 0.687500
vt 0.625000 0.750000
vt 0.562500 0.750000
vt 0.453125 0.703125
vt 0.546875 0.703125
vt 0.546875 0.859375
vt 0.453125 0.859375
vt 0.562500 0.875000
vt 0.562500 1.000000
vt 0.437500 1.000000
vt 0.437500 0.875000
vt 0.812500 0.125000
vt 0.937500 0.125000
vt 0.312500 0.875000
vt 0.312500 1.000000
vt 0.257812 0.187500
vt 0.085938 0.187500
vt 0.085938 0.125000
vt 0.257812 0.125000
vt 0.812500 0.812500
vt 0.812500 0.312500
vt 0.687500 0.312500
vt 0.687500 0.812500
vt 0.312500 0.625000
vt 0.437500 0.625000
vt 0.437500 0.750000
vt 0.312500 0.750000
vt 0.875000 1.000000
vt 0.875000 0.500000
vt 0.937500 0.500000
vt 0.625000 0.312500
vt 0.625000 0.812500
vt 0.062500 0.179688
vt 0.273438 0.179688
vt 0.242188 0.210938
vt 0.304688 0.125000
vt 0.304688 0.187500
vt 0.562500 0.125000
vt 0.500000 0.093750
vt 0.500000 0.125000
vt 0.500000 0.031250
vt 0.562500 0.000000
vt 0.500000 0.000000
vt 0.257812 0.039062
vt 0.304688 0.039062
vt 0.500000 0.000000
vt 0.375000 0.000000
vt 0.375000 0.125000
vt 0.500000 0.125000
vt 0.500000 0.125000
vt 0.375000 0.187500
vt 0.500000 0.187500
vt 0.750000 0.812500
vt 0.750000 0.875000
vt 0.875000 0.812500
vt 0.562500 0.687500
vt 0.562500 0.750000
vt 0.625000 0.750000
vt 0.796875 0.296875
vt 0.796875 0.140625
vt 0.703125 0.140625
vt 0.703125 0.296875
vt 0.687500 0.125000
vt 0.812500 0.125000
vt 0.812500 0.000000
vt 0.687500 0.000000
vt 0.437500 0.875000
vt 0.312500 0.875000
vt 0.937500 0.125000
vt 0.937500 0.000000
vt 0.195312 0.750000
vt 0.312500 0.750000
vt 0.187500 0.875000
vt 0.187500 1.000000
vt 0.195312 0.750000
vt 0.195312 0.625000
vt 0.312500 0.625000
vt 0.046875 0.289062
vt 0.046875 0.039062
vt 0.171875 0.039062
vt 0.171875 0.289062
vn 0.0001 -1.0000 0.0000
vn -0.0002 -1.0000 0.0001
vn 0.0000 -1.0000 0.0000
vn 0.0046 0.9803 0.1973
vn 0.0077 0.3127 -0.9498
vn -0.9897 0.1424 0.0168
vn 0.9510 0.2826 0.1255
vn -0.7953 -0.6062 0.0001
vn 0.0002 -1.0000 0.0001
vn -0.0004 -1.0000 0.0001
vn 0.9198 0.2733 0.2817
vn 0.8903 0.3802 -0.2508
vn 0.8510 0.5249 -0.0161
vn -0.0010 -1.0000 0.0000
vn 0.3469 0.9377 -0.0190
vn 0.0102 0.6988 -0.7153
vn 0.2922 0.4404 0.8489
vn -0.5477 0.3280 -0.7697
vn -0.0000 0.0000 1.0000
vn 0.0194 0.9971 -0.0741
vn 0.0061 0.3785 -0.9256
vn 0.9633 0.2671 -0.0243
vn -0.9983 0.0580 -0.0019
vn 0.0079 0.9843 0.1762
vn 0.7803 -0.0096 0.6254
vn -0.0130 -0.6685 0.7436
vn -0.7332 -0.1607 0.6608
vn -0.0001 -1.0000 0.0000
vn -0.0046 0.9803 0.1973
vn -0.0077 0.3127 -0.9498
vn 0.9897 0.1424 0.0168
vn -0.9510 0.2826 0.1255
vn 0.7953 -0.6062 0.0001
vn 0.0004 -1.0000 0.0001
vn -0.9198 0.2733 0.2817
vn -0.8903 0.3802 -0.2508
vn -0.8510 0.5249 -0.0161
vn 0.0010 -1.0000 0.0000
vn -0.3469 0.9377 -0.0190
vn -0.0102 0.6988 -0.7153
vn -0.2922 0.4404 0.8489
vn 0.5477 0.3280 -0.7697
vn -0.0194 0.9971 -0.0741
vn -0.0061 0.3785 -0.9256
vn -0.9633 0.2671 -0.0243
vn 0.9983 0.0580 -0.0019
vn -0.0079 0.9843 0.1762
vn -0.7803 -0.0096 0.6254
vn 0.0130 -0.6685 0.7436
vn 0.7332 -0.1607 0.6608
vn -0.0000 0.6248 0.7808
vn -0.0000 1.0000 -0.0062
vn 0.0000 0.0000 -1.0000
vn 0.0000 -0.9879 -0.1550
usemtl Standardmaterial
s 1
f 1/1/1 12/2/2 4/3/3 2/4/3
f 2/5/4 4/6/4 5/7/4 3/8/4
f 8/9/5 9/10/5 6/11/5 7/12/5
f 2/13/6 3/14/6 1/15/6
f 5/7/7 4/16/7 12/17/7
f 1/18/8 15/19/8 6/20/8
f 1/21/1 6/22/9 9/23/10 12/24/2
f 5/25/11 12/26/11 10/27/11
f 11/28/12 9/29/12 8/30/12
f 10/27/13 11/28/13 8/30/13 5/25/13
f 12/31/2 9/32/10 14/33/14 13/34/14
f 11/35/15 10/36/15 13/37/15 14/38/15
f 9/39/16 11/40/16 14/41/16
f 12/42/17 13/43/17 10/36/17
f 7/44/18 6/45/18 15/46/18
f 20/47/19 21/48/19 22/49/19 23/50/19
f 19/51/20 17/52/20 16/53/20 18/54/20
f 17/55/21 8/9/21 7/12/21 16/56/21
f 17/52/22 19/51/22 5/25/22 8/30/22
f 3/57/23 18/54/23 16/53/23 7/58/23
f 21/48/24 20/47/24 3/8/24 5/7/24
f 23/50/25 18/54/25 3/8/25 20/47/25
f 23/50/26 22/49/26 19/51/26 18/54/26
f 22/49/27 21/48/27 5/7/27 19/51/27
f 24/59/28 27/60/3 26/61/3 25/62/9
f 27/63/29 29/64/29 28/65/29 26/66/29
f 33/67/30 32/68/30 31/69/30 30/70/30
f 27/71/31 24/72/31 29/73/31
f 28/65/32 25/74/32 26/75/32
f 24/76/33 33/77/33 34/78/33
f 32/79/34 33/80/2 24/59/28 25/62/9
f 28/81/35 35/82/35 25/83/35
f 36/84/36 31/85/36 32/86/36
f 35/82/37 28/81/37 31/85/37 36/84/37
f 25/62/9 38/87/38 37/88/38 32/79/34
f 36/89/39 37/90/39 38/91/39 35/92/39
f 32/93/40 37/94/40 36/95/40
f 25/96/41 35/97/41 38/98/41
f 30/99/42 34/100/42 33/101/42
f 39/102/19 42/103/19 41/104/19 40/105/19
f 43/106/43 46/107/43 45/108/43 44/109/43
f 30/70/44 31/69/44 44/110/44 45/111/44
f 28/81/45 43/106/45 44/109/45 31/85/45
f 29/112/46 30/113/46 45/108/46 46/107/46
f 40/105/47 28/65/47 29/64/47 39/102/47
f 29/64/48 46/107/48 42/103/48 39/102/48
f 42/103/49 46/107/49 43/106/49 41/104/49
f 41/104/50 43/106/50 28/65/50 40/105/50
f 24/114/51 1/115/51 3/57/51 29/116/51
f 29/116/52 3/57/52 7/58/52 30/117/52
f 30/70/53 7/118/53 15/119/53 34/120/53
f 15/121/54 1/122/54 24/123/54 34/124/54
