# Blender v2.79 (sub 0) OBJ File: ''
# www.blender.org
mtllib virgo.mtl
o Box002_Untitled.002
v 0.547298 0.122662 0.048163
v 0.459129 0.122662 -0.649813
v 0.563784 0.299380 0.048163
v 0.206386 0.577445 0.048163
v 0.179822 0.477035 -0.649814
v 0.475615 0.258545 -0.649813
v 0.457245 0.122662 0.346534
v 0.473731 0.299380 0.346534
v 0.473731 0.299380 0.346534
v 0.331370 0.124349 0.541180
v 0.347855 0.301066 0.541180
v 0.473731 0.299380 0.346534
v 0.132302 0.130758 0.639175
v 0.180128 0.345880 0.415666
v 0.139252 0.299264 0.645092
v 0.167159 0.500000 0.082224
v 0.155315 0.451072 0.399175
v 0.197200 0.363768 0.105437
v 0.116337 0.346208 0.661404
v 0.082753 0.273192 0.805386
v 0.095701 0.139698 0.753091
v 0.179822 0.275000 -0.649813
v 0.179822 0.080000 -0.649813
v 0.179822 0.077776 0.048163
v 0.179822 0.080000 0.284180
v 0.179822 0.080000 0.482136
v -0.179822 0.077776 0.048163
v -0.179822 0.080000 -0.649813
v -0.563784 0.299380 0.048163
v -0.475615 0.258545 -0.649813
v -0.179822 0.477035 -0.649814
v -0.206386 0.577445 0.048163
v -0.179822 0.275000 -0.649813
v -0.459129 0.122662 -0.649813
v -0.547298 0.122662 0.048163
v -0.179822 0.080000 0.284180
v -0.473731 0.299380 0.346534
v -0.473731 0.299380 0.346534
v -0.457245 0.122662 0.346534
v -0.179822 0.080000 0.482136
v -0.473731 0.299380 0.346534
v -0.347855 0.301066 0.541180
v -0.331370 0.124349 0.541180
v -0.132302 0.130758 0.639175
v -0.180128 0.345880 0.415666
v -0.139252 0.299264 0.645092
v -0.167159 0.500000 0.082224
v -0.197200 0.363768 0.105437
v -0.155315 0.451072 0.399175
v -0.116337 0.346208 0.661404
v -0.082753 0.273192 0.805386
v -0.095701 0.139698 0.753091
vt 0.500000 0.562500
vt 0.500000 0.812500
vt 0.375000 0.812500
vt 0.375000 0.562500
vt 0.562500 0.812500
vt 0.562500 0.562500
vt 0.562500 0.500000
vt 0.562500 0.375000
vt 0.562500 0.375000
vt 0.625000 0.375000
vt 0.625000 0.500000
vt 0.562500 0.250000
vt 0.625000 0.250000
vt 0.562500 0.375000
vt 0.562500 0.187500
vt 0.625000 0.187500
vt 0.906250 0.898438
vt 0.921875 0.882812
vt 0.960639 0.838425
vt 0.880147 0.839123
vt 0.375000 0.500000
vt 0.375000 0.375000
vt 0.437500 0.375000
vt 0.437500 0.500000
vt 0.375000 0.296875
vt 0.437500 0.250000
vt 0.375000 0.187500
vt 0.437500 0.187500
vt 0.375000 0.250000
vt 0.500000 0.500000
vt 0.375000 0.875000
vt 0.500000 0.937500
vt 0.375000 0.937500
vt 0.687500 0.562500
vt 0.687500 0.812500
vt 0.625000 0.562500
vt 0.625000 0.500000
vt 0.687500 0.500000
vt 0.625000 0.437500
vt 0.687500 0.437500
vt 0.625000 0.375000
vt 0.125000 0.562500
vt 0.250000 0.562500
vt 0.250000 0.812500
vt 0.125000 0.812500
vt 0.062500 0.812500
vt 0.062500 0.562500
vt 0.062500 0.500000
vt -0.000000 0.500000
vt -0.000000 0.375000
vt 0.062500 0.375000
vt 0.062500 0.375000
vt 0.062500 0.250000
vt 0.062500 0.375000
vt -0.000000 0.250000
vt -0.000000 0.187500
vt 0.062500 0.187500
vt 0.187500 0.375000
vt 0.250000 0.375000
vt 0.250000 0.500000
vt 0.187500 0.500000
vt 0.250000 0.296875
vt 0.187500 0.250000
vt 0.250000 0.187500
vt 0.250000 0.250000
vt 0.187500 0.187500
vt 0.125000 0.500000
vt 0.250000 0.875000
vt 0.250000 0.937500
vt 0.125000 0.937500
vt 0.812500 0.562500
vt 0.937500 0.562500
vt 0.937500 0.812500
vt 0.812500 0.812500
vt 0.812500 0.500000
vt 0.875000 0.500000
vt 0.875000 0.562500
vt 0.812500 0.437500
vt 0.875000 0.437500
vt 0.875000 0.375000
vt 0.250000 0.125000
vt 0.375000 0.125000
vn 0.6001 0.7894 -0.1292
vn 0.9871 -0.1041 -0.1216
vn 0.9536 -0.0890 0.2878
vn 0.8368 -0.0781 0.5419
vn 0.4429 -0.0454 0.8954
vn 0.0000 0.0000 0.5748
vn 0.0646 -0.7355 0.6745
vn 0.6365 -0.6860 0.3525
vn 0.0000 0.0000 0.6745
vn 0.9703 0.2319 0.0694
vn 0.9262 0.2908 0.2400
vn 0.9469 -0.0426 0.3188
vn 0.8815 0.3051 0.3603
vn 0.2054 0.2451 0.9475
vn -0.0000 -0.0000 -1.0000
vn 0.1341 -0.9909 -0.0101
vn 0.1320 -0.9909 0.0264
vn 0.1814 -0.9814 0.0624
vn 0.1386 -0.9293 0.3423
vn -0.6001 0.7894 -0.1292
vn -0.9871 -0.1041 -0.1216
vn -0.9536 -0.0890 0.2878
vn -0.8368 -0.0781 0.5419
vn -0.4429 -0.0454 0.8954
vn -0.6365 -0.6860 0.3525
vn -0.0646 -0.7355 0.6745
vn -0.9703 0.2319 0.0694
vn -0.9262 0.2908 0.2400
vn -0.9469 -0.0426 0.3188
vn -0.8815 0.3051 0.3603
vn -0.2054 0.2451 0.9475
vn -0.1341 -0.9909 -0.0101
vn -0.1320 -0.9909 0.0264
vn -0.1814 -0.9814 0.0624
vn -0.1386 -0.9293 0.3423
vn 0.0000 0.9898 -0.1424
vn 0.0000 -1.0000 -0.0032
vn 0.0000 -1.0000 0.0031
vn 0.0000 -1.0000 0.0047
vn 0.0000 -1.0000 0.0000
vn 0.0000 -0.9515 0.3076
vn 0.0000 -0.9969 0.0782
vn 0.0000 -0.3647 0.9311
vn 0.0000 0.8919 0.4523
vn 0.0000 0.9285 0.3713
vn 0.0000 0.9883 0.1526
vn 0.0000 0.4026 0.9154
vn 0.1765 0.9825 0.0599
vn -0.1765 0.9825 0.0599
vn -0.1418 0.9770 0.1593
vn 0.1418 0.9770 0.1593
usemtl 01_-_Default
s 1
f 3/1/1 6/2/1 5/3/1 4/4/1
f 2/5/2 6/2/2 3/1/2 1/6/2
f 3/7/3 9/8/3 8/9/3 7/10/3 1/11/3
f 11/12/4 10/13/4 7/10/4 8/9/4 12/14/4
f 11/12/5 15/15/5 13/16/5 10/13/5
f 8/17/6 9/18/7 11/19/8
f 12/20/9 8/17/6 11/19/8
f 16/21/10 17/22/10 14/23/10 18/24/10
f 19/25/11 15/26/11 14/23/11 17/22/11
f 21/27/12 13/28/12 15/26/12 20/29/12
f 19/25/13 20/29/13 15/26/13
f 4/4/14 16/21/14 18/30/14 3/1/14
f 5/3/15 6/2/15 22/31/15
f 22/31/15 6/2/15 2/32/15 23/33/15
f 2/5/16 1/6/16 24/34/16 23/35/16
f 24/34/17 1/36/17 7/37/17 25/38/17
f 25/38/18 7/37/18 10/39/18 26/40/18
f 26/40/19 10/39/19 13/41/19
f 29/42/20 32/43/20 31/44/20 30/45/20
f 34/46/21 35/47/21 29/42/21 30/45/21
f 29/48/22 35/49/22 39/50/22 38/51/22 37/52/22
f 42/53/23 41/54/23 38/51/23 39/50/23 43/55/23
f 42/53/24 43/55/24 44/56/24 46/57/24
f 38/51/6 42/53/25 37/52/9
f 41/54/26 42/53/25 38/51/6
f 45/58/27 49/59/27 47/60/27 48/61/27
f 50/62/28 49/59/28 45/58/28 46/63/28
f 52/64/29 51/65/29 46/63/29 44/66/29
f 50/62/30 46/63/30 51/65/30
f 48/67/31 47/60/31 32/43/31 29/42/31
f 31/44/15 33/68/15 30/45/15
f 33/68/15 28/69/15 34/70/15 30/45/15
f 27/71/32 35/72/32 34/73/32 28/74/32
f 27/71/33 36/75/33 39/76/33 35/77/33
f 36/75/34 40/78/34 43/79/34 39/76/34
f 40/78/35 44/80/35 43/79/35
f 32/43/36 4/4/36 5/3/36 31/44/36
f 31/44/15 5/3/15 22/31/15 33/68/15
f 33/68/15 22/31/15 23/33/15 28/69/15
f 28/74/37 23/35/37 24/34/38 27/71/38
f 27/71/38 24/34/38 25/38/39 36/75/39
f 36/75/39 25/38/39 26/40/40 40/78/40
f 40/78/41 26/40/41 13/41/41 44/80/41
f 44/81/42 13/82/42 21/27/42 52/64/42
f 52/64/43 21/27/43 20/29/43 51/65/43
f 51/65/44 20/29/44 19/25/44 50/62/44
f 50/62/45 19/25/45 17/22/45 49/59/45
f 49/59/46 17/22/46 16/21/46 47/60/46
f 32/43/47 47/60/47 16/21/47 4/4/47
f 18/24/48 14/23/48 9/8/48 3/7/48
f 48/61/49 29/48/49 37/52/49 45/58/49
f 42/53/50 46/63/50 45/58/50 37/52/50
f 11/12/51 9/8/51 14/23/51 15/26/51
