# Blender v2.79 (sub 0) OBJ File: ''
# www.blender.org
mtllib virgo.mtl
o Box002_Untitled.002
v 0.132031 -0.563784 0.039897
v 0.830007 -0.475615 -0.000938
v 0.830008 -0.179822 0.217552
v 0.132031 -0.206386 0.317962
v 0.830007 -0.459129 -0.136821
v 0.132031 -0.547298 -0.136821
v -0.166340 -0.473731 0.039897
v -0.166340 -0.473731 0.039897
v -0.166340 -0.457245 -0.136821
v -0.360986 -0.347855 0.041583
v -0.360986 -0.331370 -0.135134
v -0.166340 -0.473731 0.039897
v -0.464898 -0.139252 0.039781
v -0.458981 -0.132302 -0.128725
v 0.097970 -0.167159 0.240517
v -0.218981 -0.155315 0.191589
v -0.235472 -0.180128 0.086397
v 0.074757 -0.197200 0.104285
v -0.481210 -0.116337 0.086725
v -0.572897 -0.095701 -0.119785
v -0.625192 -0.082753 0.013708
v 0.830007 -0.179822 0.015517
v 0.830007 -0.179822 -0.179483
v 0.132031 -0.179822 -0.181707
v -0.103986 -0.179822 -0.179483
v -0.301942 -0.179822 -0.179483
v 0.132031 0.563784 0.039897
v 0.132031 0.206386 0.317962
v 0.830008 0.179822 0.217552
v 0.830007 0.475615 -0.000938
v 0.830007 0.459129 -0.136821
v 0.132031 0.547298 -0.136821
v -0.166340 0.457245 -0.136821
v -0.166340 0.473731 0.039897
v -0.166340 0.473731 0.039897
v -0.360986 0.347855 0.041583
v -0.166340 0.473731 0.039897
v -0.360986 0.331370 -0.135134
v -0.458981 0.132302 -0.128725
v -0.464898 0.139252 0.039781
v -0.235472 0.180128 0.086397
v -0.218981 0.155315 0.191589
v 0.097970 0.167159 0.240517
v 0.074757 0.197200 0.104285
v -0.481210 0.116337 0.086725
v -0.572897 0.095701 -0.119785
v -0.625192 0.082753 0.013708
v 0.830007 0.179822 0.015517
v 0.830007 0.179822 -0.179483
v 0.132031 0.179822 -0.181707
v -0.103986 0.179822 -0.179483
v -0.301942 0.179822 -0.179483
vt 0.500000 0.562500
vt 0.500000 0.812500
vt 0.375000 0.812500
vt 0.375000 0.562500
vt 0.562500 0.812500
vt 0.562500 0.562500
vt 0.562500 0.500000
vt 0.562500 0.375000
vt 0.562500 0.375000
vt 0.625000 0.375000
vt 0.625000 0.500000
vt 0.562500 0.250000
vt 0.625000 0.250000
vt 0.562500 0.375000
vt 0.562500 0.187500
vt 0.625000 0.187500
vt 0.906250 0.898438
vt 0.921875 0.882812
vt 0.960639 0.838425
vt 0.880147 0.839123
vt 0.375000 0.500000
vt 0.375000 0.375000
vt 0.437500 0.375000
vt 0.437500 0.500000
vt 0.375000 0.296875
vt 0.437500 0.250000
vt 0.375000 0.187500
vt 0.437500 0.187500
vt 0.375000 0.250000
vt 0.500000 0.500000
vt 0.375000 0.875000
vt 0.500000 0.937500
vt 0.375000 0.937500
vt 0.687500 0.562500
vt 0.687500 0.812500
vt 0.625000 0.562500
vt 0.625000 0.500000
vt 0.687500 0.500000
vt 0.625000 0.437500
vt 0.687500 0.437500
vt 0.625000 0.375000
vt 0.125000 0.562500
vt 0.250000 0.562500
vt 0.250000 0.812500
vt 0.125000 0.812500
vt 0.062500 0.812500
vt 0.062500 0.562500
vt 0.062500 0.500000
vt -0.000000 0.500000
vt -0.000000 0.375000
vt 0.062500 0.375000
vt 0.062500 0.375000
vt 0.062500 0.250000
vt 0.062500 0.375000
vt -0.000000 0.250000
vt -0.000000 0.187500
vt 0.062500 0.187500
vt 0.187500 0.375000
vt 0.250000 0.375000
vt 0.250000 0.500000
vt 0.187500 0.500000
vt 0.250000 0.296875
vt 0.187500 0.250000
vt 0.250000 0.187500
vt 0.250000 0.250000
vt 0.187500 0.187500
vt 0.125000 0.500000
vt 0.250000 0.875000
vt 0.250000 0.937500
vt 0.125000 0.937500
vt 0.812500 0.562500
vt 0.937500 0.562500
vt 0.937500 0.812500
vt 0.812500 0.812500
vt 0.812500 0.500000
vt 0.875000 0.500000
vt 0.875000 0.562500
vt 0.812500 0.437500
vt 0.875000 0.437500
vt 0.875000 0.375000
vt 0.250000 0.125000
vt 0.375000 0.125000
vn 0.1292 -0.6001 0.7894
vn 0.1216 -0.9871 -0.1041
vn -0.2878 -0.9536 -0.0890
vn -0.5419 -0.8368 -0.0781
vn -0.8954 -0.4429 -0.0454
vn 0.0000 0.0000 1.0000
vn -0.4269 -0.8340 0.3496
vn -0.0694 -0.9703 0.2319
vn -0.2400 -0.9262 0.2908
vn -0.3188 -0.9469 -0.0426
vn -0.3603 -0.8815 0.3051
vn -0.9475 -0.2054 0.2451
vn 1.0000 0.0000 -0.0000
vn 0.0101 -0.1341 -0.9909
vn -0.0264 -0.1320 -0.9909
vn -0.0624 -0.1814 -0.9814
vn -0.3423 -0.1386 -0.9293
vn 0.1292 0.6001 0.7894
vn 0.1216 0.9871 -0.1041
vn -0.2878 0.9536 -0.0890
vn -0.5419 0.8368 -0.0781
vn -0.8954 0.4429 -0.0454
vn -0.3525 0.6365 -0.6860
vn -0.4268 0.8340 0.3496
vn -0.0694 0.9703 0.2319
vn -0.2400 0.9262 0.2908
vn -0.3188 0.9469 -0.0426
vn -0.3603 0.8815 0.3051
vn -0.9475 0.2054 0.2451
vn 0.0101 0.1341 -0.9909
vn -0.0264 0.1320 -0.9909
vn -0.0624 0.1814 -0.9814
vn -0.3423 0.1386 -0.9293
vn 0.1424 0.0000 0.9898
vn 0.0032 0.0000 -1.0000
vn -0.0031 -0.0000 -1.0000
vn -0.0047 -0.0000 -1.0000
vn 0.0000 0.0000 -1.0000
vn -0.3076 0.0000 -0.9515
vn -0.0782 0.0000 -0.9969
vn -0.9311 0.0000 -0.3648
vn -0.4523 0.0000 0.8919
vn -0.3713 0.0000 0.9285
vn -0.1526 0.0000 0.9883
vn -0.9154 0.0000 0.4026
vn -0.0599 -0.1765 0.9825
vn -0.0599 0.1765 0.9825
vn -0.1593 0.1418 0.9770
vn -0.1593 -0.1418 0.9770
usemtl 01_-_Default
s 1
f 1/1/1 2/2/1 3/3/1 4/4/1
f 5/5/2 2/2/2 1/1/2 6/6/2
f 1/7/3 7/8/3 8/9/3 9/10/3 6/11/3
f 10/12/4 11/13/4 9/10/4 8/9/4 12/14/4
f 10/12/5 13/15/5 14/16/5 11/13/5
f 8/17/6 7/18/7 10/19/7
f 12/20/6 8/17/6 10/19/7
f 15/21/8 16/22/8 17/23/8 18/24/8
f 19/25/9 13/26/9 17/23/9 16/22/9
f 20/27/10 14/28/10 13/26/10 21/29/10
f 19/25/11 21/29/11 13/26/11
f 4/4/12 15/21/12 18/30/12 1/1/12
f 3/3/13 2/2/13 22/31/13
f 22/31/13 2/2/13 5/32/13 23/33/13
f 5/5/14 6/6/14 24/34/14 23/35/14
f 24/34/15 6/36/15 9/37/15 25/38/15
f 25/38/16 9/37/16 11/39/16 26/40/16
f 26/40/17 11/39/17 14/41/17
f 27/42/18 28/43/18 29/44/18 30/45/18
f 31/46/19 32/47/19 27/42/19 30/45/19
f 27/48/20 32/49/20 33/50/20 34/51/20 35/52/20
f 36/53/21 37/54/21 34/51/21 33/50/21 38/55/21
f 36/53/22 38/55/22 39/56/22 40/57/22
f 34/51/6 36/53/23 35/52/6
f 37/54/24 36/53/23 34/51/6
f 41/58/25 42/59/25 43/60/25 44/61/25
f 45/62/26 42/59/26 41/58/26 40/63/26
f 46/64/27 47/65/27 40/63/27 39/66/27
f 45/62/28 40/63/28 47/65/28
f 44/67/29 43/60/29 28/43/29 27/42/29
f 29/44/13 48/68/13 30/45/13
f 48/68/13 49/69/13 31/70/13 30/45/13
f 50/71/30 32/72/30 31/73/30 49/74/30
f 50/71/31 51/75/31 33/76/31 32/77/31
f 51/75/32 52/78/32 38/79/32 33/76/32
f 52/78/33 39/80/33 38/79/33
f 28/43/34 4/4/34 3/3/34 29/44/34
f 29/44/13 3/3/13 22/31/13 48/68/13
f 48/68/13 22/31/13 23/33/13 49/69/13
f 49/74/35 23/35/35 24/34/36 50/71/36
f 50/71/36 24/34/36 25/38/37 51/75/37
f 51/75/37 25/38/37 26/40/38 52/78/38
f 52/78/39 26/40/39 14/41/39 39/80/39
f 39/81/40 14/82/40 20/27/40 46/64/40
f 46/64/41 20/27/41 21/29/41 47/65/41
f 47/65/42 21/29/42 19/25/42 45/62/42
f 45/62/43 19/25/43 16/22/43 42/59/43
f 42/59/44 16/22/44 15/21/44 43/60/44
f 28/43/45 43/60/45 15/21/45 4/4/45
f 18/24/46 17/23/46 7/8/46 1/7/46
f 44/61/47 27/48/47 35/52/47 41/58/47
f 36/53/48 40/63/48 41/58/48 35/52/48
f 10/12/49 7/8/49 17/23/49 13/26/49
